<?xml version="1.0" encoding="UTF-8"?>
<svg width="2015px" height="755px" viewBox="0 0 2015 755" version="1.1" xmlns="http://www.w3.org/2000/svg" xmlns:xlink="http://www.w3.org/1999/xlink">
    <!-- Generator: Sketch 56.3 (81716) - https://sketch.com -->
    <title>Blog Logo</title>
    <desc>Created with Sketch.</desc>
    <g id="Logos" stroke="none" stroke-width="1" fill="none" fill-rule="evenodd">
        <g id="Blog-Logo" fill-rule="nonzero">
            <path d="M817.026432,677.063495 C900.808861,614.142036 960.457414,554.367547 995.973879,497.738235 C1031.49034,441.108922 1049.24831,378.63784 1049.24831,310.323114 C1025.57067,324.705162 998.250718,331.896078 967.287647,331.896078 C925.396432,331.896078 891.246497,317.963678 864.836818,290.098461 C838.427139,262.233243 825.222498,226.728096 825.222498,183.581953 C825.222498,135.042542 842.069799,95.4925045 875.764907,64.9306533 C909.460014,34.3688021 954.537928,19.0881057 1011,19.0881057 C1140.31636,19.0881057 1204.97357,103.581368 1204.97357,272.570428 C1204.97357,319.312082 1199.50958,361.558714 1188.58144,399.311589 C1177.65329,437.064464 1159.89533,474.36734 1135.30701,511.221337 C1110.71868,548.075334 1077.47941,585.827643 1035.5882,624.479396 C993.696984,663.131149 941.789083,704.928348 879.86294,749.872247 L817.026432,677.063495 Z" id="’" fill="#CDFFED"></path>
            <path d="M0.469603524,260.780617 L19.7118943,260.780617 C22.8387665,307.924229 66.614978,340.395595 126.987665,340.395595 C186.157709,340.395595 227.288106,308.886344 227.288106,262.704846 C227.288106,225.182379 202.273128,204.496916 141.900441,190.305727 L105.099559,181.646696 C37.2704846,165.771806 9.60969163,138.832599 9.60969163,92.89163 C9.60969163,38.5321586 60.1207048,0.769162996 123.379736,0.769162996 C188.803524,0.769162996 237.871366,39.2537445 239.795595,90.7268722 L220.793833,90.7268722 C218.148018,48.6343612 177.498678,18.3277533 122.898678,18.3277533 C71.185022,18.3277533 29.092511,47.4317181 29.092511,92.4105727 C29.092511,129.451982 54.3480176,150.618502 111.112775,164.088106 L147.913656,172.506608 C218.148018,189.103084 246.530396,213.877533 246.530396,260.780617 C246.530396,318.748018 198.184141,357.954185 126.506608,357.954185 C54.5885463,357.954185 3.35594714,318.026432 0.469603524,260.780617 Z M400.94978,352.903084 L381.948018,352.903084 L381.948018,23.3788546 L260.240529,23.3788546 L260.240529,5.82026432 L522.41674,5.82026432 L522.41674,23.3788546 L400.94978,23.3788546 L400.94978,352.903084 Z M760.540088,335.344493 L760.540088,352.903084 L558.255507,352.903084 L558.255507,5.82026432 L760.540088,5.82026432 L760.540088,23.3788546 L577.257269,23.3788546 L577.257269,166.252863 L751.881057,166.252863 L751.881057,183.570925 L577.257269,183.570925 L577.257269,335.344493 L760.540088,335.344493 Z M940.936564,352.903084 L921.694273,352.903084 L789.403524,5.82026432 L809.848458,5.82026432 L930.834361,327.647577 L932.037004,327.647577 L1053.02291,5.82026432 L1073.22731,5.82026432 L940.936564,352.903084 Z M1311.59119,335.344493 L1311.59119,352.903084 L1109.30661,352.903084 L1109.30661,5.82026432 L1311.59119,5.82026432 L1311.59119,23.3788546 L1128.30837,23.3788546 L1128.30837,166.252863 L1302.93216,166.252863 L1302.93216,183.570925 L1128.30837,183.570925 L1128.30837,335.344493 L1311.59119,335.344493 Z M1384.95242,352.903084 L1366.19119,352.903084 L1366.19119,5.82026432 L1385.91454,5.82026432 L1606.96035,318.26696 L1608.40352,318.26696 L1608.40352,5.82026432 L1627.40529,5.82026432 L1627.40529,352.903084 L1609.36564,352.903084 L1386.39559,38.5321586 L1384.95242,38.5321586 L1384.95242,352.903084 Z M1701.24758,112.855507 L1685.37269,112.855507 L1707.98238,5.82026432 L1727.70573,5.82026432 L1701.24758,112.855507 Z M1768.59559,260.780617 L1787.83789,260.780617 C1790.96476,307.924229 1834.74097,340.395595 1895.11366,340.395595 C1954.2837,340.395595 1995.4141,308.886344 1995.4141,262.704846 C1995.4141,225.182379 1970.39912,204.496916 1910.02643,190.305727 L1873.22555,181.646696 C1805.39648,165.771806 1777.73568,138.832599 1777.73568,92.89163 C1777.73568,38.5321586 1828.2467,0.769162996 1891.50573,0.769162996 C1956.92952,0.769162996 2005.99736,39.2537445 2007.92159,90.7268722 L1988.91982,90.7268722 C1986.27401,48.6343612 1945.62467,18.3277533 1891.02467,18.3277533 C1839.31101,18.3277533 1797.2185,47.4317181 1797.2185,92.4105727 C1797.2185,129.451982 1822.47401,150.618502 1879.23877,164.088106 L1916.03965,172.506608 C1986.27401,189.103084 2014.65639,213.877533 2014.65639,260.780617 C2014.65639,318.748018 1966.31013,357.954185 1894.6326,357.954185 C1822.71454,357.954185 1771.48194,318.026432 1768.59559,260.780617 Z M135.887225,749.872247 L17.7876652,749.872247 L17.7876652,402.789427 L133.481938,402.789427 C193.854626,402.789427 234.744493,436.944493 234.744493,487.214978 C234.744493,528.585903 207.805286,560.576211 166.434361,568.513656 L166.434361,569.956828 C215.502203,575.248458 253.02467,606.998238 253.02467,657.268722 C253.02467,714.03348 208.767401,749.872247 135.887225,749.872247 Z M36.7894273,420.107489 L36.7894273,562.740969 L126.025551,562.740969 C180.385022,562.740969 215.502203,534.35859 215.502203,488.65815 C215.502203,446.806167 182.309251,420.107489 130.595595,420.107489 L36.7894273,420.107489 Z M36.7894273,732.554185 L134.203524,732.554185 C196.740969,732.554185 233.782379,703.45022 233.782379,656.787665 C233.782379,608.922467 195.057269,579.818502 129.152423,579.818502 L36.7894273,579.818502 L36.7894273,732.554185 Z M497.882819,732.313656 L497.882819,749.872247 L296.800881,749.872247 L296.800881,402.789427 L315.802643,402.789427 L315.802643,732.313656 L497.882819,732.313656 Z M663.36652,397.738326 C757.894273,397.738326 818.026432,467.010573 818.026432,576.210573 C818.026432,685.89163 758.134802,754.923348 663.36652,754.923348 C568.598238,754.923348 508.706608,685.89163 508.706608,576.210573 C508.706608,467.010573 568.838767,397.738326 663.36652,397.738326 Z M663.36652,415.537445 C580.62467,415.537445 528.189427,478.07489 528.189427,576.210573 C528.189427,674.586784 580.865198,737.124229 663.36652,737.124229 C745.867841,737.124229 798.543612,674.586784 798.543612,576.210573 C798.543612,478.07489 745.867841,415.537445 663.36652,415.537445 Z M1142.25903,612.530396 C1142.25903,701.044934 1089.34273,754.923348 1002.27137,754.923348 C911.832599,754.923348 850.257269,682.043172 850.257269,574.286344 C850.257269,467.972687 910.870485,397.738326 1002.27137,397.738326 C1072.02467,397.738326 1127.10573,439.830837 1140.09427,502.849339 L1120.61145,502.849339 C1106.90132,449.692511 1060.71982,415.537445 1002.27137,415.537445 C921.934802,415.537445 869.740088,478.07489 869.740088,574.045815 C869.740088,671.700441 923.137445,737.124229 1002.27137,737.124229 C1076.83524,737.124229 1123.25727,690.221145 1123.25727,615.41674 L1123.25727,595.452863 L1002.27137,595.452863 L1002.27137,578.134802 L1142.25903,578.134802 L1142.25903,612.530396 Z" id="STEVEN’SBLOG" fill="#A5A5A5"></path>
        </g>
    </g>
</svg>