<?xml version="1.0" encoding="UTF-8"?>
<svg width="248px" height="93px" viewBox="0 0 248 93" version="1.1" xmlns="http://www.w3.org/2000/svg" xmlns:xlink="http://www.w3.org/1999/xlink">
    <!-- Generator: Sketch 56.3 (81716) - https://sketch.com -->
    <title>Blog Logo</title>
    <desc>Created with Sketch.</desc>
    <g id="Welcome" stroke="none" stroke-width="1" fill="none" fill-rule="evenodd">
        <g id="Desktop-Copy" transform="translate(-388.000000, -40.000000)" fill-rule="nonzero">
            <g id="Group" transform="translate(154.000000, 40.000000)">
                <g id="Blog-Logo" transform="translate(234.000000, 0.000000)">
                    <path d="M102,83.1328413 C112.150285,75.4698264 119.376739,68.1900714 123.679577,61.2933579 C127.982416,54.3966445 130.133803,46.7884795 130.133803,38.4686347 C127.265244,40.220181 123.955418,41.095941 120.204225,41.095941 C115.129083,41.095941 110.9918,39.399156 107.792254,36.0055351 C104.592707,32.6119142 102.992958,28.2878492 102.992958,23.0332103 C102.992958,17.1217417 105.034017,12.3050617 109.116197,8.58302583 C113.198377,4.86099 118.65959,3 125.5,3 C141.166745,3 149,13.29018 149,33.8708487 C149,39.5633741 148.338035,44.7084641 147.014085,49.3062731 C145.690134,53.904082 143.538747,58.447087 140.559859,62.9354244 C137.580971,67.4237617 133.554016,72.0215017 128.478873,76.7287823 C123.40373,81.4360629 117.115061,86.5264179 109.612676,92 L102,83.1328413 Z" id="’" fill="#4F4F4F"></path>
                    <path d="M0,32.0638215 L2.36923812,32.0638215 C2.75423931,37.8774284 8.14425603,41.8816984 15.5777406,41.8816984 C22.8631478,41.8816984 27.9273943,37.9960734 27.9273943,32.3011116 C27.9273943,27.6739551 24.8473848,25.1230868 17.4139002,23.3730725 L12.8827323,22.3052672 C4.5311679,20.347624 1.12538811,17.025563 1.12538811,11.3602624 C1.12538811,4.65681774 7.34463817,0 15.1335085,0 C23.1889181,0 29.2304753,4.74580152 29.4673991,11.0933111 L27.1277765,11.0933111 C26.8020062,5.90259064 21.7969907,2.16527194 15.0742775,2.16527194 C8.70695008,2.16527194 3.5242417,5.75428435 3.5242417,11.3009399 C3.5242417,15.8687738 6.63386673,18.4789647 13.6231192,20.1399952 L18.1542871,21.1781393 C26.8020062,23.2247662 30.2966324,26.2798759 30.2966324,32.0638215 C30.2966324,39.2121851 24.3439217,44.0469704 15.5185097,44.0469704 C6.66348221,44.0469704 0.355385718,39.1232013 0,32.0638215 Z M49.3097683,43.4240839 L46.9701457,43.4240839 L46.9701457,2.78815839 L31.9847146,2.78815839 L31.9847146,0.62288645 L64.265584,0.62288645 L64.265584,2.78815839 L49.3097683,2.78815839 L49.3097683,43.4240839 Z M93.5849057,41.258812 L93.5849057,43.4240839 L68.6782899,43.4240839 L68.6782899,0.62288645 L93.5849057,0.62288645 L93.5849057,2.78815839 L71.0179126,2.78815839 L71.0179126,20.4069465 L92.5187485,20.4069465 L92.5187485,22.5425572 L71.0179126,22.5425572 L71.0179126,41.258812 L93.5849057,41.258812 Z M115.796513,43.4240839 L113.427275,43.4240839 L97.1387628,0.62288645 L99.6560783,0.62288645 L114.552663,40.3096517 L114.70074,40.3096517 L129.597325,0.62288645 L132.085025,0.62288645 L115.796513,43.4240839 Z M161.433962,41.258812 L161.433962,43.4240839 L136.527347,43.4240839 L136.527347,0.62288645 L161.433962,0.62288645 L161.433962,2.78815839 L138.866969,2.78815839 L138.866969,20.4069465 L160.367805,20.4069465 L160.367805,22.5425572 L138.866969,22.5425572 L138.866969,41.258812 L161.433962,41.258812 Z M170.466683,43.4240839 L168.156675,43.4240839 L168.156675,0.62288645 L170.585144,0.62288645 L197.801767,39.1528626 L197.97946,39.1528626 L197.97946,0.62288645 L200.319083,0.62288645 L200.319083,43.4240839 L198.097922,43.4240839 L170.644375,4.65681774 L170.466683,4.65681774 L170.466683,43.4240839 Z M209.411034,13.8221469 L207.456413,13.8221469 L210.240267,0.62288645 L212.668737,0.62288645 L209.411034,13.8221469 Z M217.703368,32.0638215 L220.072606,32.0638215 C220.457607,37.8774284 225.847624,41.8816984 233.281108,41.8816984 C240.566515,41.8816984 245.630762,37.9960734 245.630762,32.3011116 C245.630762,27.6739551 242.550752,25.1230868 235.117268,23.3730725 L230.5861,22.3052672 C222.234535,20.347624 218.828756,17.025563 218.828756,11.3602624 C218.828756,4.65681774 225.048006,0 232.836876,0 C240.892286,0 246.933843,4.74580152 247.170767,11.0933111 L244.831144,11.0933111 C244.505374,5.90259064 239.500358,2.16527194 232.777645,2.16527194 C226.410318,2.16527194 221.227609,5.75428435 221.227609,11.3009399 C221.227609,15.8687738 224.337234,18.4789647 231.326487,20.1399952 L235.857655,21.1781393 C244.505374,23.2247662 248,26.2798759 248,32.0638215 C248,39.2121851 242.047289,44.0469704 233.221877,44.0469704 C224.36685,44.0469704 218.058753,39.1232013 217.703368,32.0638215 Z M16.6735133,92.3771136 L2.13231431,92.3771136 L2.13231431,49.5759161 L16.3773585,49.5759161 C23.8108431,49.5759161 28.8454741,53.7878149 28.8454741,59.9870182 C28.8454741,65.0887548 25.5285407,69.0337023 20.4346788,70.0125239 L20.4346788,70.1904914 C26.476236,70.8430391 31.0962503,74.7583254 31.0962503,80.9575286 C31.0962503,87.9575859 25.6470026,92.3771136 16.6735133,92.3771136 Z M4.47193695,51.7115268 L4.47193695,69.3006536 L15.4592787,69.3006536 C22.1523764,69.3006536 26.476236,65.800625 26.476236,60.1649857 C26.476236,55.0039266 22.3893002,51.7115268 16.0219728,51.7115268 L4.47193695,51.7115268 Z M4.47193695,90.2415029 L16.4662049,90.2415029 C24.1662288,90.2415029 28.7270122,86.6524905 28.7270122,80.8982061 C28.7270122,74.9956155 23.9589205,71.4066031 15.8442799,71.4066031 L4.47193695,71.4066031 L4.47193695,90.2415029 Z M61.2448053,90.2118416 L61.2448053,92.3771136 L36.486267,92.3771136 L36.486267,49.5759161 L38.8258897,49.5759161 L38.8258897,90.2118416 L61.2448053,90.2118416 Z M81.6202532,48.9530296 C93.2591354,48.9530296 100.663005,57.4954724 100.663005,70.9616842 C100.663005,84.4872185 93.2887509,93 81.6202532,93 C69.9517554,93 62.5775018,84.4872185 62.5775018,70.9616842 C62.5775018,57.4954724 69.9813709,48.9530296 81.6202532,48.9530296 Z M81.6202532,51.1479628 C71.4325293,51.1479628 64.9763554,58.8598903 64.9763554,70.9616842 C64.9763554,83.0931393 71.4621447,90.8050668 81.6202532,90.8050668 C91.7783616,90.8050668 98.2641509,83.0931393 98.2641509,70.9616842 C98.2641509,58.8598903 91.7783616,51.1479628 81.6202532,51.1479628 Z M140.584667,75.4405344 C140.584667,86.3558779 134.069262,93 123.34846,93 C112.21304,93 104.631478,84.0126384 104.631478,70.7243941 C104.631478,57.6141174 112.094578,48.9530296 123.34846,48.9530296 C131.936948,48.9530296 138.718892,54.14375 140.318128,61.915 L137.919274,61.915 C136.231192,55.3598617 130.54502,51.1479628 123.34846,51.1479628 C113.45689,51.1479628 107.030332,58.8598903 107.030332,70.6947328 C107.030332,82.7372042 113.604968,90.8050668 123.34846,90.8050668 C132.529257,90.8050668 138.245044,85.0211212 138.245044,75.7964695 L138.245044,73.3345849 L123.34846,73.3345849 L123.34846,71.1989743 L140.584667,71.1989743 L140.584667,75.4405344 Z" id="STEVEN’SBLOG" fill="#FFFFFF"></path>
                </g>
            </g>
        </g>
    </g>
</svg>