<?xml version="1.0" encoding="UTF-8"?>
<svg width="90px" height="26px" viewBox="0 0 90 26" version="1.1" xmlns="http://www.w3.org/2000/svg" xmlns:xlink="http://www.w3.org/1999/xlink">
    <!-- Generator: Sketch 56.3 (81716) - https://sketch.com -->
    <title>play-img-2</title>
    <desc>Created with Sketch.</desc>
    <g id="Page-1" stroke="none" stroke-width="1" fill="none" fill-rule="evenodd" fill-opacity="0.71">
        <g id="play-img-2" transform="translate(1.000000, 1.000000)" fill-rule="nonzero">
            <path d="M12,0 L76,0 C82.627417,-1.21743675e-15 88,5.372583 88,12 C88,18.627417 82.627417,24 76,24 L12,24 C5.372583,24 8.11624501e-16,18.627417 0,12 C-8.11624501e-16,5.372583 5.372583,1.21743675e-15 12,0 Z" id="Shape" stroke-opacity="0.519968313" stroke="#FFFFFF" stroke-width="0.1" fill="#4A4A4A"></path>
            <polygon id="Shape-path" fill="#FFFFFF" points="9.02373473 17.0440075 8.95 17 9.02481837 6.95659437 18.0237347 12.1900075"></polygon>
            <path d="M29,9.14611765 L30.6235294,9.14611765 C30.9157662,9.14611765 31.18094,9.17723498 31.4190588,9.23947059 C31.6571777,9.30170619 31.8614697,9.39641113 32.0319412,9.52358824 C32.2024126,9.65076534 32.3336466,9.8104108 32.4256471,10.0025294 C32.5176475,10.194648 32.5636471,10.4205869 32.5636471,10.6803529 C32.5636471,10.9401189 32.5162946,11.1660579 32.4215882,11.3581765 C32.3268819,11.5502951 32.194295,11.7099405 32.0238235,11.8371176 C31.8533521,11.9642948 31.6477071,12.0603526 31.4068824,12.1252941 C31.1660576,12.1902356 30.8995309,12.2227059 30.6072941,12.2227059 L29.5844706,12.2227059 L29.5844706,14.8934118 L29,14.8934118 L29,9.14611765 Z M29.5844706,11.7275294 L30.5748235,11.7275294 C31.0348258,11.7275294 31.3838812,11.6382362 31.622,11.4596471 C31.8601188,11.2810579 31.9791765,11.0212958 31.9791765,10.6803529 C31.9791765,10.3231747 31.8560601,10.0620596 31.6098235,9.897 C31.363587,9.73194035 31.0185905,9.64941176 30.5748235,9.64941176 L29.5844706,9.64941176 L29.5844706,11.7275294 Z M34.2927059,14.3738824 L36.9715294,14.3738824 L36.9715294,14.8934118 L33.7082353,14.8934118 L33.7082353,9.14611765 L34.2927059,9.14611765 L34.2927059,14.3738824 Z M37.8076471,14.8934118 L37.1663529,14.8934118 L39.6503529,9.14611765 L40.2185882,9.14611765 L42.6863529,14.8934118 L42.0369412,14.8934118 L41.4037647,13.3835294 L38.4327059,13.3835294 L37.8076471,14.8934118 Z M38.6518824,12.8477647 L41.1845882,12.8477647 L39.9182353,9.79552941 L38.6518824,12.8477647 Z M45.0161176,14.8934118 L44.4316471,14.8934118 L44.4316471,12.4175294 L42.2804706,9.14611765 L43.0110588,9.14611765 L44.7401176,11.9304706 L46.4854118,9.14611765 L47.1672941,9.14611765 L45.0161176,12.4175294 L45.0161176,14.8934118 Z M49.7649412,9.14611765 L51.6725882,9.14611765 C52.0297665,9.14611765 52.3882923,9.20564646 52.7481765,9.32470588 C53.1080606,9.4437653 53.4327633,9.62370468 53.7222941,9.86452941 C54.011825,10.1053541 54.2458815,10.4057041 54.4244706,10.7655882 C54.6030597,11.1254724 54.6923529,11.543527 54.6923529,12.0197647 C54.6923529,12.5014142 54.6030597,12.9208217 54.4244706,13.278 C54.2458815,13.6351783 54.011825,13.9341753 53.7222941,14.175 C53.4327633,14.4158247 53.1080606,14.5957641 52.7481765,14.7148235 C52.3882923,14.8338829 52.0297665,14.8934118 51.6725882,14.8934118 L49.7649412,14.8934118 L49.7649412,9.14611765 Z M50.3494118,14.3738824 L51.5102353,14.3738824 C51.9431786,14.3738824 52.3206454,14.306236 52.6426471,14.1709412 C52.9646487,14.0356464 53.2311754,13.8584129 53.4422353,13.6392353 C53.6532952,13.4200577 53.8115877,13.1697661 53.9171176,12.8883529 C54.0226476,12.6069398 54.0754118,12.3174133 54.0754118,12.0197647 C54.0754118,11.7221162 54.0226476,11.4325896 53.9171176,11.1511765 C53.8115877,10.8697633 53.6532952,10.6194717 53.4422353,10.4002941 C53.2311754,10.1811166 52.9646487,10.003883 52.6426471,9.86858824 C52.3206454,9.73329344 51.9431786,9.66564706 51.5102353,9.66564706 L50.3494118,9.66564706 L50.3494118,14.3738824 Z M56.4944706,14.3738824 L59.5710588,14.3738824 L59.5710588,14.8934118 L55.91,14.8934118 L55.91,9.14611765 L59.4736471,9.14611765 L59.4736471,9.66564706 L56.4944706,9.66564706 L56.4944706,11.6463529 L59.2788235,11.6463529 L59.2788235,12.1577647 L56.4944706,12.1577647 L56.4944706,14.3738824 Z M63.5568235,13.9030588 L63.5649412,13.9030588 L65.4888235,9.14611765 L66.3817647,9.14611765 L66.3817647,14.8934118 L65.7972941,14.8934118 L65.7972941,9.90105882 L65.7810588,9.90105882 L63.7029412,14.8934118 L63.3944706,14.8934118 L61.3163529,9.90105882 L61.3001176,9.90105882 L61.3001176,14.8934118 L60.7156471,14.8934118 L60.7156471,9.14611765 L61.6085882,9.14611765 L63.5568235,13.9030588 Z M73.5902353,12.0197647 C73.5902353,12.4581198 73.5144713,12.8612923 73.3629412,13.2292941 C73.211411,13.597296 73.0017072,13.915234 72.7338235,14.1831176 C72.4659398,14.4510013 72.1493548,14.6607051 71.7840588,14.8122353 C71.4187629,14.9637655 71.0223551,15.0395294 70.5948235,15.0395294 C70.167292,15.0395294 69.7708842,14.9637655 69.4055882,14.8122353 C69.0402923,14.6607051 68.7237072,14.4510013 68.4558235,14.1831176 C68.1879398,13.915234 67.9782361,13.597296 67.8267059,13.2292941 C67.6751757,12.8612923 67.5994118,12.4581198 67.5994118,12.0197647 C67.5994118,11.5814096 67.6751757,11.1782371 67.8267059,10.8102353 C67.9782361,10.4422335 68.1879398,10.1242955 68.4558235,9.85641176 C68.7237072,9.58852807 69.0402923,9.37882429 69.4055882,9.22729412 C69.7708842,9.07576395 70.167292,9 70.5948235,9 C71.0223551,9 71.4187629,9.07576395 71.7840588,9.22729412 C72.1493548,9.37882429 72.4659398,9.58852807 72.7338235,9.85641176 C73.0017072,10.1242955 73.211411,10.4422335 73.3629412,10.8102353 C73.5144713,11.1782371 73.5902353,11.5814096 73.5902353,12.0197647 Z M72.9732941,12.0197647 C72.9732941,11.6842336 72.919177,11.3649427 72.8109412,11.0618824 C72.7027053,10.758822 72.5457657,10.4922953 72.3401176,10.2622941 C72.1344696,10.032293 71.8841779,9.84964774 71.5892353,9.71435294 C71.2942926,9.57905815 70.9628254,9.51141176 70.5948235,9.51141176 C70.2268217,9.51141176 69.8953544,9.57905815 69.6004118,9.71435294 C69.3054691,9.84964774 69.0551775,10.032293 68.8495294,10.2622941 C68.6438813,10.4922953 68.4869417,10.758822 68.3787059,11.0618824 C68.27047,11.3649427 68.2163529,11.6842336 68.2163529,12.0197647 C68.2163529,12.3552958 68.27047,12.6745867 68.3787059,12.9776471 C68.4869417,13.2807074 68.6438813,13.5458812 68.8495294,13.7731765 C69.0551775,14.0004717 69.3054691,14.181764 69.6004118,14.3170588 C69.8953544,14.4523536 70.2268217,14.52 70.5948235,14.52 C70.9628254,14.52 71.2942926,14.4523536 71.5892353,14.3170588 C71.8841779,14.181764 72.1344696,14.0004717 72.3401176,13.7731765 C72.5457657,13.5458812 72.7027053,13.2807074 72.8109412,12.9776471 C72.919177,12.6745867 72.9732941,12.3552958 72.9732941,12.0197647 Z" id="PLAYDEMO" fill="#FFFFFF"></path>
        </g>
    </g>
</svg>